{"title":"Django Unchained  (Adventure 2012)  Jamie Foxx, Christoph Waltz ","uid":9442351,"size":998280070,"categoryP":"video","categoryS":"movies","magnet":"?xt=urn:btih:56f80ec7f516d7f868d3a102169f53c3e24bfcac&amp;dn=Django+Unchained++%28Adventure+2012%29++Jamie+Foxx%2C+Christoph+Waltz+&amp;tr=udp%3A%2F%2Ftracker.openbittorrent.com%3A80&amp;tr=udp%3A%2F%2Fopen.demonii.com%3A1337&amp;tr=udp%3A%2F%2Ftracker.coppersurfer.tk%3A6969&amp;tr=udp%3A%2F%2Fexodus.desync.com%3A6969","seeders":7,"leechers":0,"uploader":"BurtonW","files":1,"time":1389033910,"description":" &lt;a href=&quot;http://www.imdb.com/title/tt1853728/?ref_=fn_al_tt_1&quot; rel=&quot;nofollow&quot; target=&quot;_NEW&quot;&gt;http://www.imdb.com/title/tt1853728/?ref_=fn_al_tt_1&lt;/a&gt;\n\nA very good quality film.\n\nEnglish subtitles!\n\nStoryline:\n\n   Former dentist, Dr. King Schultz, buys the freedom of a slave, Django, and trains him with the intent to make him his deputy bounty hunter. Instead, he is led to the site of Django's wife who is under the hands of Calvin Candie, a ruthless plantation owner.\n\n\nTechnical info:\n\nGeneral:\n\nComplete name:                  : Django Unchained  (Adventure 2012)  Jamie Foxx, Christoph Waltz &amp; Leonardo DiCaprio.mp4\n\nFormat                         : MPEG-4\nFormat profile                 : Base Media / Version 2\nCodec ID                       : mp42\nFile size                      : 952 MiB\nDuration                       : 2h 45mn\nOverall bit rate mode          : Variable\nOverall bit rate               : 805 Kbps\nEncoded date                   : UTC 2014-01-06 08:21:12\nTagged date                    : UTC 2014-01-06 14:41:04\n\n\nVideo:\n\nID                             : 1\nFormat                         : AVC\nFormat/Info                    : Advanced Video Codec\nFormat profile                 : &lt;a class=&quot;__cf_email__&quot; href=&quot;/cdn-cgi/l/email-protection&quot; data-cfemail=&quot;0449656d6a4448302a34&quot;&gt;[email&amp;#160;protected]&lt;/a&gt;&lt;script cf-hash='f9e31' type=&quot;text/javascript&quot;&gt;\n/* &lt;![CDATA[ */!function(){try{var t=&quot;currentScript&quot;in document?document.currentScript:function(){for(var t=document.getElementsByTagName(&quot;script&quot;),e=t.length;e--;)if(t[e].getAttribute(&quot;cf-hash&quot;))return t[e]}();if(t&amp;&amp;t.previousSibling){var e,r,n,i,c=t.previousSibling,a=c.getAttribute(&quot;data-cfemail&quot;);if(a){for(e=&quot;&quot;,r=parseInt(a.substr(0,2),16),n=2;a.length-n;n+=2)i=parseInt(a.substr(n,2),16)^r,e+=String.fromCharCode(i);e=document.createTextNode(e),c.parentNode.replaceChild(e,c)}}}catch(u){}}();/* ]]&gt; */&lt;/script&gt;\nFormat settings, CABAC         : Yes\nFormat settings, ReFrames      : 16 frames\nCodec ID                       : avc1\nCodec ID/Info                  : Advanced Video Coding\nDuration                       : 2h 45mn\nBit rate mode                  : Variable\nBit rate                       : 640 Kbps\nWidth                          : 720 pixels\nHeight                         : 304 pixels\nDisplay aspect ratio           : 2.35:1\nFrame rate mode                : Variable\nFrame rate                     : 23.976 fps\nMinimum frame rate             : 23.974 fps\nMaximum frame rate             : 90 000.000 fps\nColor space                    : YUV\nChroma subsampling             : 4:2:0\nBit depth                      : 8 bits\nScan type                      : Progressive\nBits/(Pixel*Frame)             : 0.122\nStream size                    : 757 MiB (79%)\nWriting library                : x264 core 130 r2273 b3065e6\nEncoding settings              : Deleted\nEncoded date                   : UTC 2014-01-06 08:21:12\nTagged date                    : UTC 2014-01-06 14:41:04\nColor primaries                : BT.709\nTransfer characteristics       : BT.709\nMatrix coefficients            : BT.709\n\nAudio:\n\nID                             : 2\nFormat                         : AAC\nFormat/Info                    : Advanced Audio Codec\nFormat profile                 : LC\nCodec ID                       : 40\nDuration                       : 2h 45mn\nBit rate mode                  : Variable\nBit rate                       : 160 Kbps\nMaximum bit rate               : 300 Kbps\nChannel(s)                     : 2 channels\nChannel positions              : Front: L R\nSampling rate                  : 48.0 KHz\nCompression mode               : Lossy\nDelay relative to video        : 83ms\nStream size                    : 189 MiB (20%)\nLanguage                       : English\nEncoded date                   : UTC 2014-01-06 08:21:12\nTagged date                    : UTC 2014-01-06 14:41:03\n\nText:\n\nID                             : 3\nFormat                         : Timed text\nMuxing mode                    : sbtl\nCodec ID                       : tx3g\nDuration                       : 2h 45mn\nBit rate mode                  : Variable\nBit rate                       : 68 bps\nDelay relative to video        : 83ms\nStream size                    : 82.3 KiB (0%)\nLanguage                       : English\nEncoded date                   : UTC 2014-01-06 08:21:12\nTagged date                    : UTC 2014-01-06 14:41:03","torrent":{"xt":"urn:btih:56f80ec7f516d7f868d3a102169f53c3e24bfcac","amp;dn":"Django+Unchained++%28Adventure+2012%29++Jamie+Foxx%2C+Christoph+Waltz+","amp;tr":["udp%3A%2F%2Ftracker.openbittorrent.com%3A80","udp%3A%2F%2Fopen.demonii.com%3A1337","udp%3A%2F%2Ftracker.coppersurfer.tk%3A6969","udp%3A%2F%2Fexodus.desync.com%3A6969"],"infoHash":"56f80ec7f516d7f868d3a102169f53c3e24bfcac","infoHashBuffer":{"type":"Buffer","data":[86,248,14,199,245,22,215,248,104,211,161,2,22,159,83,195,226,75,252,172]},"announce":[],"urlList":[]}}